# xmcd CD database file
#
# Track frame offsets:
#	150
#	23731
#	35444
#	50031
#	58642
#	69794
#	82608
#	95605
#	109533
#	131285
#	150240
#	165807
#	176800
#	186447
#	202838
#	225144
#	238979
#	257864
#
# Disc length: 3583 seconds
#
# Revision: 2
# Processed by: cddbd v1.5.2PL0 Copyright (c) Steve Scherf et al.
# Submitted via: Feurio! 1.68 - http://www.feurio.com
#
DISCID=d40dfd12
DTITLE=Diverse - Liebe Autos Abenteuer
DYEAR=2004
DGENRE=Country
TTITLE0=Johnny Cash - A Word To Gunter
TTITLE1=Rolf Zacher - Wer Einmal Tief Im Keller Sass
TTITLE2=Elvis Pummel - Rocky Top
TTITLE3=Truck Stop - Hallo Dortmund
TTITLE4=Superhelicopter - Mädchen Ab 30
TTITLE5=Kulturdkadenz - Die Decke
TTITLE6=Lotto King Karl - Wer Wird Deutscher Meister
TTITLE7=Lotto King Karl - Truck Stop, Tom Astor Und Ich
TTITLE8=X-Ray Simon and Digiduck - Er Ist Ein Kerl (Der 30t Diesel)
TTITLE9=Radiant Boys - Mit Dem Hammer In Der Hand
TTITLE10=DöDelhaie - Hey Boss, Rheinhausen Über Alles
TTITLE11=Ego-N - Hey Yvonne
TTITLE12=Jens Bumber Fourman Orchestra - Papa Trinkt Bier
TTITLE13=Moses W. - Song For Gunter
TTITLE14=Sondaschule - Liebst Du Nen' Arbeitslosen Star
TTITLE15=Zepp Cash - Hallo, Ich Bin's Gunter
TTITLE16=Kombie Zombies - Der Letzte Wagen Ist Immer Ein Kombie
TTITLE17=Xao Seffcheque and Ralf Schienke - Hey Hartz, Ich Brauch Mehr Geld
EXTD=YEAR: 2004
EXTT0=
EXTT1=
EXTT2=
EXTT3=
EXTT4=
EXTT5=
EXTT6=
EXTT7=
EXTT8=
EXTT9=
EXTT10=
EXTT11=
EXTT12=
EXTT13=
EXTT14=
EXTT15=
EXTT16=
EXTT17=
PLAYORDER=
